<svg width="204" height="78" viewBox="0 0 204 78" fill="none" xmlns="http://www.w3.org/2000/svg">
<path d="M19.3 0.499995C19.1 2.43333 18.8667 4.4 18.6 6.4C18.3333 8.4 18.0667 10.3333 17.8 12.2C17.6 14.0667 17.4 15.8333 17.2 17.5C16.6 22.7 16.0333 27.5 15.5 31.9C15.0333 36.2333 14.6 40.2 14.2 43.8C13.8667 47.3333 13.5667 50.5 13.3 53.3C13.0333 56.0333 12.8333 58.4333 12.7 60.5C12.5667 62.5 12.5 64.2 12.5 65.6C12.5 66.8 12.6333 67.7 12.9 68.3C13.2333 68.9 13.7 69.2 14.3 69.2C15.2333 69.2 16.2 68.6 17.2 67.4C18.2 66.1333 19.1333 63.9 20 60.7L24.6 62C24.2667 63.5333 23.7333 65.1667 23 66.9C22.2667 68.6333 21.3 70.3 20.1 71.9C18.9667 73.4333 17.5667 74.7 15.9 75.7C14.2333 76.6333 12.2667 77.1 10 77.1C7.46667 77.1 5.4 76.4 3.8 75C2.2 73.5333 1.36667 71.2 1.3 68C1.3 65.8667 1.4 63.3 1.6 60.3C1.8 57.3 2.03333 54.0333 2.3 50.5C2.63333 46.9667 3 43.3333 3.4 39.6C3.8 35.8 4.2 32.0333 4.6 28.3C5.06667 24.5 5.5 20.9 5.9 17.5C6.1 15.9667 6.3 14.5667 6.5 13.3C6.7 11.9667 6.9 10.7 7.1 9.5C5.96667 9.56666 4.73333 9.63333 3.4 9.7C2.06667 9.7 0.966667 9.73333 0.1 9.79999L0.5 3.4C3.5 3.4 5.96667 3.26667 7.9 3C9.83333 2.66667 11.3333 2.26666 12.4 1.8C13.5333 1.33333 14.3333 0.899997 14.8 0.499995H19.3ZM48.3398 77.2C44.7898 77.2 41.5898 76.4 38.7398 74.8C35.8898 73.2 33.6148 70.975 31.9148 68.125C30.2648 65.225 29.4398 61.9 29.4398 58.15C29.4398 54.1 30.2648 50.525 31.9148 47.425C33.6148 44.275 35.8898 41.8 38.7398 40C41.5898 38.2 44.7648 37.3 48.2648 37.3C51.8148 37.3 55.0148 38.125 57.8648 39.775C60.7148 41.375 62.9648 43.625 64.6148 46.525C66.3148 49.375 67.1648 52.675 67.1648 56.425C67.1648 60.375 66.3398 63.925 64.6898 67.075C63.0398 70.225 60.7898 72.7 57.9398 74.5C55.1398 76.3 51.9398 77.2 48.3398 77.2ZM48.8648 73.45C51.2648 73.4 53.1398 72.65 54.4898 71.2C55.8898 69.75 56.8898 67.9 57.4898 65.65C58.0898 63.35 58.3898 60.975 58.3898 58.525C58.3898 56.375 58.1898 54.275 57.7898 52.225C57.4398 50.125 56.8648 48.225 56.0648 46.525C55.2648 44.825 54.2148 43.475 52.9148 42.475C51.6148 41.425 50.0398 40.925 48.1898 40.975C45.8398 40.975 43.9148 41.7 42.4148 43.15C40.9648 44.6 39.8898 46.475 39.1898 48.775C38.5398 51.025 38.2148 53.425 38.2148 55.975C38.2148 58.925 38.5898 61.725 39.3398 64.375C40.0898 67.025 41.2398 69.2 42.7898 70.9C44.3898 72.6 46.4148 73.45 48.8648 73.45ZM92.5225 77.2C88.9725 77.2 85.7725 76.4 82.9225 74.8C80.0725 73.2 77.7975 70.975 76.0975 68.125C74.4475 65.225 73.6225 61.9 73.6225 58.15C73.6225 54.1 74.4475 50.525 76.0975 47.425C77.7975 44.275 80.0725 41.8 82.9225 40C85.7725 38.2 88.9475 37.3 92.4475 37.3C95.9975 37.3 99.1975 38.125 102.047 39.775C104.897 41.375 107.147 43.625 108.797 46.525C110.497 49.375 111.347 52.675 111.347 56.425C111.347 60.375 110.522 63.925 108.872 67.075C107.222 70.225 104.972 72.7 102.122 74.5C99.3225 76.3 96.1225 77.2 92.5225 77.2ZM93.0475 73.45C95.4475 73.4 97.3225 72.65 98.6725 71.2C100.072 69.75 101.072 67.9 101.672 65.65C102.272 63.35 102.572 60.975 102.572 58.525C102.572 56.375 102.372 54.275 101.972 52.225C101.622 50.125 101.047 48.225 100.247 46.525C99.4475 44.825 98.3975 43.475 97.0975 42.475C95.7975 41.425 94.2225 40.925 92.3725 40.975C90.0225 40.975 88.0975 41.7 86.5975 43.15C85.1475 44.6 84.0725 46.475 83.3725 48.775C82.7225 51.025 82.3975 53.425 82.3975 55.975C82.3975 58.925 82.7725 61.725 83.5225 64.375C84.2725 67.025 85.4225 69.2 86.9725 70.9C88.5725 72.6 90.5975 73.45 93.0475 73.45ZM118.18 76V72.85C119.68 72.85 120.73 72.5 121.33 71.8C121.93 71.1 122.28 70.125 122.38 68.875C122.53 67.625 122.605 66.175 122.605 64.525V48.925C122.605 48.125 122.605 47.275 122.605 46.375C122.655 45.425 122.755 44.5 122.905 43.6C122.055 43.65 121.155 43.7 120.205 43.75C119.255 43.75 118.38 43.775 117.58 43.825V39.85C119.83 39.85 121.58 39.75 122.83 39.55C124.13 39.3 125.105 39.025 125.755 38.725C126.455 38.425 126.98 38.1 127.33 37.75H130.03C130.13 38.25 130.18 38.85 130.18 39.55C130.23 40.2 130.28 40.9 130.33 41.65C131.88 40.35 133.63 39.3 135.58 38.5C137.58 37.7 139.505 37.3 141.355 37.3C143.805 37.3 145.83 37.75 147.43 38.65C149.08 39.5 150.38 40.725 151.33 42.325C153.08 40.875 155.055 39.675 157.255 38.725C159.455 37.775 161.605 37.3 163.705 37.3C167.955 37.3 171.105 38.575 173.155 41.125C175.205 43.625 176.205 47.825 176.155 53.725L176.08 66.7C176.08 67.6 176.055 68.525 176.005 69.475C176.005 70.375 175.93 71.3 175.78 72.25C176.58 72.2 177.405 72.175 178.255 72.175C179.105 72.125 179.88 72.075 180.58 72.025V76H164.08V72.85C165.48 72.85 166.455 72.5 167.005 71.8C167.605 71.1 167.955 70.125 168.055 68.875C168.205 67.625 168.28 66.175 168.28 64.525V53.725C168.23 49.775 167.58 46.875 166.33 45.025C165.08 43.175 163.18 42.25 160.63 42.25C159.18 42.25 157.755 42.575 156.355 43.225C154.955 43.825 153.705 44.6 152.605 45.55C152.855 46.4 153.03 47.35 153.13 48.4C153.28 49.4 153.355 50.45 153.355 51.55C153.305 54.05 153.28 56.575 153.28 59.125C153.28 61.625 153.28 64.15 153.28 66.7C153.28 67.6 153.255 68.525 153.205 69.475C153.155 70.375 153.08 71.3 152.98 72.25C153.78 72.2 154.58 72.175 155.38 72.175C156.23 72.125 157.005 72.075 157.705 72.025V76H141.055V72.85C142.555 72.85 143.58 72.5 144.13 71.8C144.73 71.1 145.08 70.125 145.18 68.875C145.33 67.625 145.405 66.175 145.405 64.525V53.65C145.455 49.7 144.88 46.8 143.68 44.95C142.53 43.05 140.68 42.125 138.13 42.175C136.68 42.175 135.28 42.5 133.93 43.15C132.58 43.75 131.405 44.525 130.405 45.475C130.405 46.075 130.405 46.7 130.405 47.35C130.455 48 130.48 48.7 130.48 49.45V66.7C130.48 67.6 130.455 68.525 130.405 69.475C130.355 70.375 130.28 71.3 130.18 72.25C130.98 72.2 131.78 72.175 132.58 72.175C133.38 72.125 134.13 72.075 134.83 72.025V76H118.18ZM186.679 72.85C188.179 72.85 189.229 72.5 189.829 71.8C190.429 71.1 190.779 70.125 190.879 68.875C191.029 67.625 191.104 66.175 191.104 64.525V49C191.104 48.15 191.129 47.3 191.179 46.45C191.229 45.55 191.304 44.6 191.404 43.6C190.554 43.65 189.654 43.7 188.704 43.75C187.754 43.75 186.879 43.775 186.079 43.825V39.85C188.329 39.85 190.104 39.75 191.404 39.55C192.754 39.3 193.779 39.025 194.479 38.725C195.229 38.425 195.779 38.1 196.129 37.75H198.979V66.7C198.979 67.6 198.954 68.525 198.904 69.475C198.854 70.375 198.779 71.3 198.679 72.25C199.479 72.2 200.279 72.175 201.079 72.175C201.929 72.125 202.704 72.075 203.404 72.025V76H186.679V72.85ZM194.704 30.85C193.404 30.85 192.304 30.375 191.404 29.425C190.504 28.425 190.054 27.225 190.054 25.825C190.054 24.425 190.529 23.25 191.479 22.3C192.429 21.3 193.504 20.8 194.704 20.8C196.004 20.8 197.079 21.3 197.929 22.3C198.829 23.25 199.279 24.425 199.279 25.825C199.279 27.225 198.829 28.425 197.929 29.425C197.079 30.375 196.004 30.85 194.704 30.85Z" fill="#222326"/>
</svg>
